<svg viewBox="0 0 128 43" fill="none" xmlns="http://www.w3.org/2000/svg" class="md:max-w-[144px] md:w-[144px] w-[132px] object-fit "><path d="M21.452 21.858c-1.274.33-2.819.496-4.635.496-3.397 0-5.956-.944-7.678-2.83-1.721-1.887-2.582-4.494-2.582-7.82 0-3.703.837-6.568 2.512-8.597C10.767 1.055 13.373.03 16.888.03c2.311 0 4.375.295 6.191.885v2.688c-1.675-.613-3.656-.92-5.944-.92-2.736 0-4.693.755-5.873 2.265-1.18 1.51-1.769 3.762-1.769 6.757 0 2.642.602 4.635 1.805 5.98 1.203 1.344 3.078 2.016 5.625 2.016 1.958 0 3.609-.27 4.953-.813v-6.475h-5.52v-2.158h8.103v10.33c-.731.52-1.734.944-3.007 1.274Zm19.097-1.06c-1.392 1.037-3.432 1.556-6.12 1.556-2.69 0-4.836-.354-6.44-1.062V18.64c1.934.778 3.998 1.167 6.191 1.167 1.887 0 3.279-.259 4.175-.778.897-.542 1.345-1.45 1.345-2.724 0-.802-.189-1.45-.566-1.946-.378-.519-.98-.944-1.805-1.274-.802-.354-1.97-.707-3.502-1.061-1.604-.401-2.866-.861-3.786-1.38-.896-.519-1.545-1.144-1.946-1.875-.377-.755-.566-1.675-.566-2.76 0-1.887.66-3.349 1.981-4.387C30.855.56 32.836.03 35.454.03c1.132 0 2.24.083 3.326.248 1.085.165 1.957.365 2.618.601v2.654c-1.698-.637-3.515-.956-5.449-.956-1.792 0-3.16.272-4.104.814-.92.543-1.38 1.415-1.38 2.618 0 .731.166 1.31.496 1.734.33.424.873.79 1.627 1.097.755.306 1.887.648 3.397 1.026 2.5.636 4.234 1.462 5.2 2.476.991 1.014 1.487 2.335 1.487 3.963 0 1.934-.708 3.432-2.123 4.493ZM49.31 5.264V22h-2.937V.348h3.149l7.076 14.682L63.639.348h3.114V22h-2.937V5.265L57.554 18.25h-1.91L49.31 5.265Z" fill="#1B134A"></path><path d="M79.815 13.615h-6.651V22h-1.699V.348h8.492c2.287 0 3.997.601 5.13 1.804 1.132 1.18 1.698 2.818 1.698 4.918 0 2.028-.625 3.632-1.875 4.811-1.227 1.156-2.925 1.734-5.095 1.734Zm3.963-10.472c-.873-.92-2.182-1.38-3.928-1.38h-6.686v10.472h6.51c1.768 0 3.113-.46 4.033-1.38.943-.92 1.415-2.181 1.415-3.785 0-1.722-.448-3.031-1.344-3.927Zm14.666 18.645c-1.014.377-2.276.566-3.785.566-1.628 0-2.96-.378-3.998-1.132-1.014-.755-1.522-1.887-1.522-3.397 0-3.16 1.958-4.74 5.874-4.74h6.014V11.42c0-1.085-.141-1.922-.424-2.512-.283-.613-.79-1.05-1.522-1.309-.707-.283-1.757-.424-3.149-.424-1.816 0-3.479.283-4.988.849v-1.45c1.462-.567 3.243-.85 5.342-.85 2.194 0 3.798.448 4.812 1.345 1.038.896 1.557 2.347 1.557 4.351V22h-1.38l-.142-2.017a7.03 7.03 0 0 1-2.689 1.805Zm-7.677-3.998c0 2.123 1.439 3.184 4.316 3.184 2.548 0 4.529-.837 5.944-2.512v-4.069h-5.944c-1.486 0-2.582.272-3.29.814-.684.519-1.026 1.38-1.026 2.583Zm19.886 9.376c-.66.495-1.474.742-2.441.742-.92 0-1.722-.117-2.406-.353v-1.416c.59.213 1.274.319 2.052.319.731 0 1.333-.165 1.805-.495.471-.307.884-.779 1.238-1.416.354-.613.778-1.51 1.274-2.689L105.24 6.08h1.769l6.05 13.975 6.262-13.975h1.734l-6.899 15.426c-.708 1.604-1.309 2.83-1.805 3.68-.471.848-1.037 1.509-1.698 1.98Z" fill="#1B134A" fill-opacity="0.6"></path><path d="M3.072 36.839v4.996h-.836V31.18h6.65v.697H3.073v4.3h5.205v.662H3.072Zm8.61-5.867v.957h-.958v-.957h.958ZM11.664 34v7.834h-.835v-7.138H9.593l.07-.696h2.001Zm4.597.836a4.61 4.61 0 0 0-1.271.853v6.145h-.836v-7.834h.732l.087.975a5.087 5.087 0 0 1 1.41-.853c.51-.198 1.102-.296 1.776-.296.963 0 1.66.226 2.089.679.44.44.661 1.149.661 2.124v5.205h-.818v-5.17c0-.558-.075-.987-.226-1.289a1.219 1.219 0 0 0-.714-.661c-.325-.128-.778-.192-1.358-.192-.546 0-1.056.105-1.532.313Zm11.05 6.894c-.499.185-1.12.278-1.863.278-.8 0-1.456-.185-1.967-.557-.499-.371-.749-.928-.749-1.671 0-1.555.964-2.333 2.89-2.333h2.96v-.818c0-.534-.07-.946-.209-1.236-.14-.302-.389-.517-.748-.645-.349-.139-.865-.209-1.55-.209-.894 0-1.712.14-2.455.418v-.713c.72-.279 1.596-.418 2.63-.418 1.079 0 1.868.22 2.367.661.51.441.766 1.155.766 2.142v5.205h-.679l-.07-.992a3.46 3.46 0 0 1-1.323.888Zm-3.778-1.968c0 1.045.708 1.567 2.124 1.567 1.254 0 2.229-.412 2.925-1.236v-2.002h-2.925c-.73 0-1.27.134-1.619.4-.336.256-.505.68-.505 1.271Zm10.342-4.926a4.61 4.61 0 0 0-1.271.853v6.145h-.836v-7.834h.731l.087.975a5.087 5.087 0 0 1 1.41-.853c.511-.198 1.103-.296 1.776-.296.964 0 1.66.226 2.09.679.44.44.661 1.149.661 2.124v5.205h-.818v-5.17c0-.558-.076-.987-.227-1.289a1.219 1.219 0 0 0-.713-.661c-.325-.128-.778-.192-1.358-.192-.546 0-1.056.105-1.532.313Zm12.837 6.755c-.65.278-1.404.417-2.263.417-2.565 0-3.848-1.364-3.848-4.091 0-1.358.349-2.38 1.045-3.064.708-.685 1.689-1.027 2.942-1.027.476 0 .865.035 1.167.104.301.058.615.163.94.314v.696c-.592-.279-1.254-.418-1.985-.418-1.068 0-1.886.279-2.455.836-.557.557-.836 1.41-.836 2.559 0 1.172.25 2.031.75 2.577.51.545 1.334.818 2.471.818.731 0 1.422-.145 2.072-.435v.714Zm3.513-10.62v.957h-.958v-.957h.958ZM50.207 34v7.834h-.835v-7.138h-1.236l.07-.696h2.001Zm6.738 7.73c-.499.185-1.12.278-1.863.278-.8 0-1.456-.185-1.967-.557-.499-.371-.748-.928-.748-1.671 0-1.555.963-2.333 2.89-2.333h2.96v-.818c0-.534-.07-.946-.21-1.236-.14-.302-.389-.517-.748-.645-.349-.139-.865-.209-1.55-.209-.894 0-1.712.14-2.455.418v-.713c.72-.279 1.596-.418 2.63-.418 1.079 0 1.868.22 2.367.661.51.441.766 1.155.766 2.142v5.205h-.679l-.07-.992a3.46 3.46 0 0 1-1.323.888Zm-3.778-1.968c0 1.045.708 1.567 2.124 1.567 1.254 0 2.229-.412 2.925-1.236v-2.002h-2.925c-.73 0-1.27.134-1.619.4-.336.256-.505.68-.505 1.271Zm10.481 2.124a2.699 2.699 0 0 1-.853.122c-.453 0-.8-.127-1.045-.383-.232-.255-.348-.679-.348-1.27v-9.663h.836v9.662c0 .349.052.592.157.732.104.139.278.208.522.208.267 0 .51-.034.731-.104v.696Zm10.883-.609c-.674.488-1.654.731-2.943.731-1.265 0-2.28-.156-3.046-.47v-.731c.917.325 1.92.487 3.011.487 1.057 0 1.846-.168 2.368-.504.534-.349.801-.9.801-1.654 0-.465-.104-.842-.313-1.132-.21-.302-.54-.551-.993-.749-.452-.197-1.079-.383-1.88-.557-1.207-.267-2.054-.615-2.542-1.044-.487-.43-.73-1.027-.73-1.794 0-.882.313-1.572.94-2.071.638-.51 1.59-.766 2.854-.766.557 0 1.097.04 1.62.122.522.07.922.162 1.2.278v.731c-.765-.278-1.653-.418-2.663-.418-2.09 0-3.134.709-3.134 2.125 0 .417.093.76.279 1.027.186.255.487.476.905.661.43.174 1.056.36 1.88.557 1.254.29 2.13.674 2.63 1.15.51.475.765 1.102.765 1.88 0 .94-.336 1.654-1.01 2.141Zm9.096.314c-.673.278-1.428.417-2.263.417-1.405 0-2.426-.33-3.065-.992-.638-.673-.957-1.724-.957-3.151 0-2.693 1.195-4.04 3.586-4.04 1.068 0 1.87.29 2.403.871.545.58.818 1.335.818 2.264v1.375H78.16c.047 1.09.331 1.863.853 2.315.523.453 1.358.68 2.507.68.743 0 1.445-.14 2.107-.419v.68Zm-4.84-6.268c-.418.534-.627 1.329-.627 2.385h5.223v-.766c0-1.613-.812-2.42-2.437-2.42-1.01 0-1.73.267-2.159.8Zm9.784-.261c-.569.243-1.016.481-1.34.714v6.058h-.836v-7.834h.73l.088 1.097c.406-.279.87-.529 1.393-.749a8.407 8.407 0 0 1 1.55-.522v.696a9.86 9.86 0 0 0-1.585.54ZM97.979 34l-3.047 7.834h-1.01l-3.064-7.834h.87l2.682 7.155 2.716-7.155h.853Zm3.404-3.03v.958h-.958v-.957h.958Zm-.018 3.03v7.834h-.835v-7.138h-1.236l.07-.696h2.001Zm8.271 7.59c-.65.279-1.405.418-2.264.418-2.565 0-3.847-1.364-3.847-4.091 0-1.358.348-2.38 1.044-3.064.708-.685 1.689-1.027 2.943-1.027.475 0 .864.035 1.166.104.302.058.615.163.94.314v.696c-.592-.279-1.253-.418-1.985-.418-1.067 0-1.886.279-2.454.836-.558.557-.836 1.41-.836 2.559 0 1.172.249 2.031.749 2.577.51.545 1.334.818 2.472.818.731 0 1.422-.145 2.072-.435v.714Zm7.603 0c-.673.279-1.427.418-2.263.418-1.404 0-2.426-.33-3.064-.992-.638-.673-.958-1.724-.958-3.151 0-2.693 1.196-4.04 3.587-4.04 1.068 0 1.868.29 2.402.871.546.58.819 1.335.819 2.264v1.375h-5.989c.046 1.09.33 1.863.853 2.315.522.453 1.358.68 2.507.68.743 0 1.445-.14 2.106-.419v.68Zm-4.84-6.267c-.417.534-.626 1.329-.626 2.385h5.223v-.766c0-1.613-.813-2.42-2.438-2.42-1.01 0-1.729.267-2.159.8Zm12.779 4.544c0 1.427-.969 2.141-2.908 2.141-.893 0-1.683-.11-2.367-.33v-.732c.684.232 1.445.348 2.28.348.778 0 1.335-.104 1.672-.313.336-.22.505-.592.505-1.114 0-.325-.064-.58-.192-.766a1.253 1.253 0 0 0-.557-.435c-.232-.116-.621-.267-1.167-.453l-.383-.122a17.089 17.089 0 0 1-1.375-.522 1.84 1.84 0 0 1-.714-.592c-.197-.267-.296-.633-.296-1.097 0-.696.227-1.213.679-1.55.453-.336 1.173-.504 2.159-.504.847 0 1.532.093 2.054.278v.732a6.62 6.62 0 0 0-1.932-.297c-.766 0-1.317.105-1.654.314-.325.197-.487.534-.487 1.01 0 .313.063.557.191.73.139.175.337.32.592.436.267.116.691.267 1.271.453.662.209 1.166.406 1.515.592.359.174.632.4.818.679.197.278.296.65.296 1.114Z" fill="#1B134A" fill-opacity="0.8"></path></svg>